<?xml version="1.0" encoding="UTF-8" standalone="no"?>
<!-- Created with Inkscape (http://www.inkscape.org/) -->

<svg
   width="210mm"
   height="297mm"
   viewBox="0 0 210 297"
   version="1.1"
   id="svg5"
   xml:space="preserve"
   inkscape:version="1.2.1 (9c6d41e410, 2022-07-14)"
   sodipodi:docname="padium-mini-logo.svg"
   xmlns:inkscape="http://www.inkscape.org/namespaces/inkscape"
   xmlns:sodipodi="http://sodipodi.sourceforge.net/DTD/sodipodi-0.dtd"
   xmlns="http://www.w3.org/2000/svg"
   xmlns:svg="http://www.w3.org/2000/svg"><sodipodi:namedview
     id="namedview7"
     pagecolor="#ffffff"
     bordercolor="#000000"
     borderopacity="0.25"
     inkscape:showpageshadow="2"
     inkscape:pageopacity="0.0"
     inkscape:pagecheckerboard="0"
     inkscape:deskcolor="#d1d1d1"
     inkscape:document-units="mm"
     showgrid="false"
     showguides="true"
     inkscape:zoom="0.68284215"
     inkscape:cx="437.87573"
     inkscape:cy="320.71834"
     inkscape:window-width="1366"
     inkscape:window-height="697"
     inkscape:window-x="-8"
     inkscape:window-y="1039"
     inkscape:window-maximized="1"
     inkscape:current-layer="layer1" /><defs
     id="defs2" /><g
     inkscape:label="Camada 1"
     inkscape:groupmode="layer"
     id="layer1"><g
       id="g676"
       inkscape:export-filename="..\..\Users\henry.pereira\Desktop\logo.png"
       inkscape:export-xdpi="96"
       inkscape:export-ydpi="96"><path
         style="fill:#000000;stroke-width:0.264583"
         d="m 101.49787,86.938777 c -5.967722,-0.68218 -12.056612,-2.90394 -16.882168,-6.16011 -4.428077,-2.98796 -9.151996,-8.40897 -11.591105,-13.30158 -4.400412,-8.826786 -4.850236,-19.422046 -1.21204,-28.548796 4.520342,-11.33969 13.386901,-18.97321 25.288421,-21.77165 2.63701,-0.62005 3.533212,-0.70123 7.870642,-0.71295 5.65343,-0.0153 8.40189,0.45497 13.22917,2.26342 14.58959,5.46573 23.94326,20.47808 22.50042,36.11248 -0.55727,6.03849 -2.56968,11.786206 -5.83617,16.668846 -1.9161,2.86411 -6.71765,7.62347 -9.5205,9.43683 -6.05227,3.91564 -11.86256,5.79299 -18.91771,6.11246 -1.60073,0.0725 -3.81876,0.028 -4.92896,-0.099 z m 9.69146,-1.74264 c 1.9764,-0.39326 2.97517,-0.95909 3.50183,-1.98389 0.25385,-0.49393 0.3277,-7.56462 0.33073,-31.662236 l 0.004,-31.02627 -0.86363,-0.94239 c -1.12245,-1.22481 -2.91434,-1.67492 -7.47075,-1.87664 -6.00374,-0.26579 -9.885962,0.5642 -10.972152,2.34578 -0.5291,0.86784 -0.53525,1.22871 -0.53622,31.51191 -0.001,33.420296 -0.0654,32.012086 1.49952,32.820676 2.65224,1.37037 9.716152,1.76628 14.506772,0.81306 z m -8.03124,-3.16505 c -2.2532,-0.61093 -3.817952,-1.97071 -4.853002,-4.21729 -0.58427,-1.26816 -0.61285,-1.63753 -0.69051,-8.92451 -0.11373,-10.670506 -0.33356,-10.332236 6.811062,-10.480706 5.19058,-0.10785 6.24235,0.0811 7.27336,1.30634 l 0.68096,0.80927 v 7.870066 c 0,6.4237 -0.0756,8.09188 -0.41124,9.07698 -1.1775,3.45578 -5.2016,5.53841 -8.81063,4.55985 z m 3.62132,-1.31823 c 1.69791,-0.50422 2.99309,-1.61 3.79663,-3.24142 0.59819,-1.21448 0.61329,-1.43222 0.61329,-8.84405 0,-9.709556 0.64165,-8.805256 -6.24778,-8.805256 -4.980442,0 -5.049162,0.008 -5.549112,0.62462 -0.47119,0.58139 -0.50622,1.12868 -0.50622,7.906806 0,4.7613 0.10629,7.63697 0.30706,8.30707 0.57133,1.90695 2.539572,3.71444 4.587732,4.21306 1.21413,0.29558 1.51603,0.27939 2.9984,-0.16083 z m -5.75732,-4.78682 c -0.65329,-0.83052 -0.6637,-0.9582 -0.15791,-1.93629 0.47457,-0.91773 1.77772,-1.75603 3.11526,-2.00401 l 0.99218,-0.18395 v -4.44958 c 0,-3.69229 0.0708,-4.52033 0.41578,-4.86534 0.66358,-0.663586 0.90714,-0.491066 0.90714,0.64256 0,0.98925 0.0496,1.05833 0.76048,1.05833 0.41827,0 1.27028,-0.17986 1.89336,-0.3997 0.62308,-0.21983 1.17054,-0.36203 1.21658,-0.31599 0.27862,0.27863 -1.67896,2.06732 -2.68158,2.45023 l -1.18884,0.45402 -0.008,4.26353 c -0.006,2.93221 -0.10906,4.39542 -0.33073,4.6859 -0.55296,0.7246 -1.96596,1.29743 -3.20038,1.29743 -0.96456,0 -1.2864,-0.12948 -1.73293,-0.69714 z m 1.98257,-37.687656 c -1.539,-1.35127 -1.59859,-3.38882 -0.13897,-4.75231 2.73812,-2.5578 6.87187,0.64641 5.14416,3.98743 -0.50701,0.98046 -1.65003,1.57884 -3.01588,1.57884 -0.80886,0 -1.2834,-0.19416 -1.98931,-0.81396 z m 3.42325,-0.83969 c 0.97812,-0.8414 0.9896,-2.19153 0.0257,-3.02065 -0.92457,-0.79528 -1.86855,-0.78401 -2.68461,0.0321 -1.88123,1.88123 0.64518,4.72086 2.65893,2.98859 z m -7.882572,-11.04958 c -0.89316,-0.70255 -1.13188,-1.84996 -0.59921,-2.88003 0.76819,-1.48552 2.488852,-1.81318 3.763592,-0.7167 0.57992,0.49883 0.73635,0.861 0.73635,1.70488 0,2.11812 -2.23502,3.2021 -3.900732,1.89185 z m 2.404632,-0.84344 c 0.17462,-0.17462 0.3175,-0.56753 0.3175,-0.87312 0,-0.3056 -0.14288,-0.6985 -0.3175,-0.87313 -0.17463,-0.17462 -0.56754,-0.3175 -0.87313,-0.3175 -0.305592,0 -0.698502,0.14288 -0.873122,0.3175 -0.17463,0.17463 -0.3175,0.56753 -0.3175,0.87313 0,0.30559 0.14287,0.6985 0.3175,0.87312 0.17462,0.17463 0.56753,0.3175 0.873122,0.3175 0.30559,0 0.6985,-0.14287 0.87313,-0.3175 z m 3.28083,1.05834 c -0.17806,-0.17806 -0.3175,-1.03159 -0.3175,-1.94337 0,-1.29095 0.10923,-1.72472 0.53023,-2.10573 0.43813,-0.3965 0.64497,-0.42759 1.19062,-0.17897 0.60461,0.27547 0.66039,0.4448 0.66039,2.00471 0,0.93711 -0.0723,1.89216 -0.1606,2.12234 -0.18974,0.49445 -1.44318,0.56098 -1.90314,0.10102 z m 4.36869,-0.2149 c -0.89315,-0.70255 -1.13187,-1.84996 -0.5992,-2.88003 0.49864,-0.96426 1.14618,-1.35007 2.26596,-1.35007 1.13518,0 2.37829,1.24465 2.37829,2.38125 0,1.91621 -2.50427,3.06083 -4.04505,1.84885 z m 2.40463,-0.84344 c 0.50224,-0.50223 0.38583,-1.74398 -0.1925,-2.05349 -0.91247,-0.48834 -1.85957,0.13726 -1.8672,1.23337 -0.007,0.93995 1.38557,1.49426 2.0597,0.82012 z M 93.329968,82.708587 c 0.52304,-0.52304 0.52916,-0.88194 0.52916,-31.001556 0,-27.98359 -0.0358,-30.51192 -0.43788,-30.95625 -0.64109,-0.7084 -1.58887,-0.5975 -3.7516,0.43896 -4.28775,2.05485 -7.988276,4.97153 -11.065166,8.72134 -1.941607,2.36624 -2.236351,3.0124 -1.610881,3.53149 0.184478,0.1531 2.01934,0.31469 4.123407,0.36313 l 3.79102,0.0873 0.77139,0.86407 0.77138,0.86407 v 4.34583 c 0,4.38052 -0.13942,5.02991 -0.93763,4.36745 -0.30766,-0.25533 -0.38529,-1.16431 -0.38529,-4.51139 0,-3.87335 -0.0389,-4.21242 -0.511771,-4.46552 -0.804527,-0.43057 -7.832022,-0.35149 -8.695637,0.0978 -1.501892,0.78144 -2.311226,2.08645 -3.529934,5.69187 -2.042543,6.04264 -2.262163,12.77287 -0.627134,19.21835 2.077879,8.191256 8.040826,16.089086 15.487626,20.513156 1.85082,1.09955 4.60492,2.34112 5.21904,2.35278 0.1819,0.003 0.56885,-0.23184 0.8599,-0.52289 z M 79.092414,67.875117 c -6.663934,-3.33001 -6.508631,-12.898166 0.259482,-15.986706 1.815592,-0.82852 4.299455,-0.93455 6.303072,-0.26906 1.78246,0.59204 4.00015,2.64369 4.95131,4.58061 0.63329,1.28962 0.73931,1.828 0.73931,3.75446 0,2.698126 -0.71849,4.508656 -2.48723,6.267606 -1.8017,1.79172 -3.43514,2.46365 -5.989126,2.46365 -1.874721,0 -2.365552,-0.10534 -3.776818,-0.81056 z m 6.521824,-0.93066 c 1.58076,-0.65853 2.8934,-1.92587 3.73119,-3.60244 1.49819,-2.998156 0.93406,-6.420436 -1.45162,-8.806116 -3.504039,-3.50403 -9.328852,-2.46919 -11.699749,2.07859 -1.336201,2.56306 -0.793443,6.357476 1.208942,8.451696 2.183805,2.28396 5.446107,3.03019 8.211237,1.87827 z m -4.361687,-4.58929 c -2.476719,-1.510216 -1.214067,-5.307016 1.765935,-5.310166 1.1712,-10e-4 2.059302,0.60825 2.530892,1.73692 1.11545,2.66963 -1.80111,5.095036 -4.296827,3.573246 z m 2.883141,-1.394716 c 0.254662,-0.29452 0.463021,-0.81131 0.463021,-1.14843 0,-0.61565 -1.100503,-1.70968 -1.719792,-1.70968 -0.179033,0 -0.639225,0.24677 -1.022651,0.54837 -0.939327,0.73887 -0.936773,1.87056 0.0059,2.61206 0.798729,0.62828 1.555927,0.5276 2.27353,-0.30232 z m -4.71148,-14.84066 c -0.07195,-0.18749 -0.09797,-2.30085 -0.05784,-4.69636 0.07187,-4.29011 0.0819,-4.35674 0.668282,-4.44001 l 0.595312,-0.0846 v 4.7809 c 0,4.62913 -0.01706,4.7809 -0.537469,4.7809 -0.295611,0 -0.596337,-0.1534 -0.668282,-0.34089 z m 2.95385,-4.57555 c -0.08833,-0.23018 -0.160599,-1.17294 -0.160599,-2.09503 0,-2.01802 0.162057,-2.51354 0.822058,-2.51354 0.456274,0 0.500859,0.22374 0.500859,2.51354 0,2.2898 -0.04458,2.51355 -0.500859,2.51355 -0.275474,0 -0.57313,-0.18833 -0.661459,-0.41852 z m 38.470998,40.503316 c 4.30108,-2.1746 9.18657,-6.27217 12.12035,-10.16558 2.91747,-3.87177 5.38969,-9.6741 6.15297,-14.441096 0.1864,-1.16417 0.34214,-3.73753 0.34609,-5.71858 0.006,-3.0177 -0.0693,-3.71864 -0.46438,-4.32158 -0.48893,-0.74621 -1.86836,-1.46921 -2.80313,-1.46921 -0.52378,0 -0.53767,0.14651 -0.53767,5.67131 0,3.11923 -0.11224,5.96654 -0.24942,6.32736 -0.13719,0.36083 -0.49438,0.73379 -0.79375,0.82881 -0.51251,0.16266 -0.54433,0.37329 -0.54433,3.603016 0,3.90595 -0.30013,4.99649 -1.55351,5.64464 -1.18839,0.61453 -3.75841,0.5505 -4.6041,-0.11472 -0.37,-0.29104 -0.75423,-0.52917 -0.85384,-0.52917 -0.0996,0 -0.48385,0.23813 -0.85385,0.52917 -0.52648,0.41413 -1.07336,0.52916 -2.51559,0.52916 -1.74302,0 -1.89159,-0.0487 -2.74244,-0.89958 l -0.89958,-0.89958 v -3.68087 -3.680866 l -0.79375,-0.58685 -0.79375,-0.58684 v -5.94521 c 0,-5.69419 -0.0215,-5.9452 -0.50997,-5.9452 -0.28048,0 -0.75673,0.31371 -1.05833,0.69714 -0.54189,0.68889 -0.54837,0.89878 -0.54837,17.744476 0,11.55627 0.0908,17.21699 0.28188,17.57404 0.61858,1.15582 1.69016,1.11411 4.21847,-0.16419 z m 5.00545,-15.64652 c 0.49023,-0.62323 0.54837,-1.05804 0.54837,-4.10104 0,-2.424696 -0.0892,-3.403906 -0.3099,-3.403906 -0.17044,0 -0.52763,-0.19705 -0.79375,-0.43788 -0.44192,-0.39994 -0.48385,-0.96309 -0.48385,-6.49827 v -6.06038 l -0.99219,0.0821 -0.99219,0.0821 -0.071,5.97987 -0.071,5.97988 -0.81002,0.72173 -0.81002,0.72172 0.0873,3.259496 c 0.1083,4.04434 0.30467,4.37169 2.62263,4.37169 1.33482,0 1.59639,-0.0879 2.07566,-0.69714 z m 6.3692,0.16797 c 0.4769,-0.4769 0.52917,-0.88194 0.52917,-4.10104 0,-2.204866 -0.10126,-3.571876 -0.26459,-3.571876 -0.14552,0 -0.5027,-0.23813 -0.79375,-0.52917 -0.49789,-0.49789 -0.52916,-0.88194 -0.52916,-6.49826 v -5.9691 l -0.99219,0.0821 -0.99219,0.0821 -0.13229,6.16162 c -0.10924,5.08812 -0.20144,6.20526 -0.52917,6.4121 -0.21828,0.13776 -0.48617,0.2523 -0.59531,0.25452 -0.10914,0.002 -0.19844,1.58491 -0.19844,3.517056 0,4.42843 0.1332,4.68908 2.39626,4.68908 1.21972,0 1.69121,-0.11872 2.10166,-0.52917 z m 5.05714,-22.241086 c 1.24236,-0.66489 1.10455,-2.22456 -0.53627,-6.06933 -2.53818,-5.94745 -6.85739,-11.19279 -12.20926,-14.82718 -2.1114,-1.43382 -5.74079,-3.16449 -6.63626,-3.16449 -1.5368,0 -1.55035,0.10474 -1.55035,11.98548 v 10.8094 l 0.7734,0.77339 0.77339,0.7734 h 9.43046 c 6.14134,0 9.61337,-0.0979 9.95489,-0.28067 z"
         id="path302"
         sodipodi:nodetypes="csssssssssscccsccssscsccssssscscssssscsssscsscscsssssccssccssssscscccssssssssssssssssssscsssssssscssscsssscccsssccssscssssssssssssssssscssssssssscsccssccsssssssssssssssssssssscccccsssssscsssscccccccsscccsssscccsscssccssssscccss" /><g
         aria-label="Your pocket-sized sound palette"
         id="text417"
         style="font-size:5.47444px;font-family:'Bebas Neue';-inkscape-font-specification:'Bebas Neue';text-align:center;text-anchor:middle;stroke-width:0.431061;stroke-linecap:round"><path
           d="m 71.634301,124.94236 q 0,0.15236 -0.475806,0.80726 -0.315422,0.40898 -0.628171,0.81796 -0.07752,0.10158 -0.07752,0.2085 0,0.14434 0.01337,0.43304 0.01604,0.28601 0.01604,0.42769 0,0.0481 -0.06683,0.0481 h -0.63619 q -0.05346,0 -0.05346,-0.0775 0,-0.13632 0.01871,-0.41432 0.01871,-0.278 0.01871,-0.417 0,-0.12029 -0.06683,-0.21385 -0.192461,-0.24859 -0.57471,-0.74846 -0.326114,-0.4464 -0.470459,-0.67895 -0.04812,-0.0802 -0.04812,-0.15504 -0.0053,-0.33681 -0.0053,-0.973 0,-0.0722 0.06415,-0.0722 0.04544,0 0.133653,0.008 0.09089,0.008 0.136327,0.008 0.05346,0 0.160384,-0.008 0.106922,-0.008 0.163057,-0.008 0.04811,0 0.04811,0.0428 0,0.14969 -0.01604,0.44907 -0.01604,0.29939 -0.01604,0.44908 0,0.16038 0.847362,1.12803 0.20048,-0.22721 0.459768,-0.56401 0.360864,-0.46512 0.360864,-0.55868 0,-0.14434 -0.02139,-0.43571 -0.02138,-0.29403 -0.02138,-0.43838 0,-0.0722 0.06148,-0.0722 0.04811,0 0.147019,0.008 0.0989,0.008 0.147018,0.008 0.05079,0 0.152365,-0.008 0.10425,-0.008 0.155038,-0.008 0.06415,0 0.06415,0.0882 0,0.15237 0.0053,0.45977 0.0053,0.3074 0.0053,0.45977 z"
           style="font-family:'Berlin Sans FB';-inkscape-font-specification:'Berlin Sans FB, Normal'"
           id="path576" /><path
           d="m 74.411617,126.38314 q 0,0.55867 -0.36621,0.95428 -0.374229,0.40898 -0.927554,0.40898 -0.555998,0 -0.930227,-0.4063 -0.36621,-0.39295 -0.36621,-0.95162 0,-0.55867 0.36621,-0.95161 0.376902,-0.40096 0.930227,-0.40096 0.550651,0 0.924881,0.40096 0.368883,0.39027 0.368883,0.94627 z m -0.564017,0.005 q 0,-0.32611 -0.20048,-0.55599 -0.208499,-0.24325 -0.529267,-0.24325 -0.320768,0 -0.53194,0.24057 -0.20048,0.23256 -0.20048,0.55867 0,0.32077 0.203153,0.556 0.213845,0.2486 0.529267,0.2486 0.318095,0 0.529267,-0.2486 0.20048,-0.23523 0.20048,-0.556 z"
           style="font-family:'Berlin Sans FB';-inkscape-font-specification:'Berlin Sans FB, Normal'"
           id="path578" /><path
           d="m 77.263779,125.26045 q 0,0.19513 -0.01604,0.59075 -0.01604,0.39294 -0.01604,0.59075 0,0.19513 0.01069,0.5854 0.01337,0.38759 0.01337,0.58273 0,0.0535 -0.05079,0.0695 -0.02138,0.005 -0.542632,0.005 -0.03208,0 -0.0401,-0.20048 -0.0053,-0.20048 -0.0294,-0.20048 -0.01336,0 -0.0401,0.0241 -0.446402,0.38759 -0.882112,0.38759 -0.590747,0 -0.780535,-0.42769 -0.117615,-0.26463 -0.117615,-0.95161 0,-0.62015 0.0989,-1.05051 0.02406,-0.10425 0.08821,-0.10425 0.07752,0 0.232556,0.003 0.155038,0.003 0.232557,0.003 0.05346,0 0.05346,0.0588 0,0.10425 -0.03475,0.3475 -0.03742,0.25929 -0.0401,0.36621 -0.008,0.16038 -0.008,0.35284 0,0.46779 0.06683,0.62817 0.114942,0.2887 0.510556,0.2887 0.168403,0 0.398287,-0.16573 0.243249,-0.17375 0.251268,-0.33414 0.01337,-0.20048 0.01337,-1.41138 0,-0.13098 0.109596,-0.13098 h 0.441056 q 0.07752,0 0.07752,0.0936 z"
           style="font-family:'Berlin Sans FB';-inkscape-font-specification:'Berlin Sans FB, Normal'"
           id="path580" /><path
           d="m 79.338078,125.17491 q 0,0.29404 -0.0401,0.53462 -0.008,0.0615 -0.05346,0.0615 -0.05613,0 -0.171076,-0.0107 -0.112269,-0.0134 -0.171077,-0.0134 -0.336806,0 -0.430363,0.18979 -0.05613,0.11494 -0.05613,0.47847 v 0.29404 q 0,0.14969 0.01069,0.45442 0.01336,0.30473 0.01336,0.45442 0,0.0722 -0.06148,0.0722 -0.08286,0 -0.251268,-0.003 -0.168403,-0.003 -0.251268,-0.003 -0.06148,0 -0.06148,-0.0668 0,-0.21651 0.0053,-0.65222 0.008,-0.43571 0.008,-0.6549 0,-0.66025 -0.122961,-1.06121 -0.0053,-0.0214 -0.0053,-0.0321 0,-0.0321 0.03475,-0.0454 0.0989,-0.0107 0.277999,-0.0321 0.288692,-0.0535 0.267307,-0.0535 0.04277,0 0.05613,0.15771 0.01337,0.15771 0.04812,0.15771 0.0053,0 0.01337,-0.005 0.109596,-0.0695 0.219191,-0.139 0.120288,-0.0722 0.245922,-0.10693 0.10425,-0.0321 0.267307,-0.0321 0.208499,0 0.208499,0.0561 z"
           style="font-family:'Berlin Sans FB';-inkscape-font-specification:'Berlin Sans FB, Normal'"
           id="path582" /><path
           d="m 83.673792,126.39918 q 0,0.53996 -0.342153,0.93824 -0.358191,0.41967 -0.890131,0.41967 -0.33146,0 -0.580055,-0.20582 -0.112269,-0.10425 -0.224538,-0.21117 -0.01604,0.008 -0.02138,0.0428 -0.0027,0.016 -0.0027,0.29939 l -0.0027,0.7538 q 0,0.0855 -0.06148,0.0855 -0.411652,0 -0.486498,-0.0107 -0.06148,-0.008 -0.06148,-0.0695 0,-0.34215 0.0053,-1.02646 0.0053,-0.6843 0.0053,-1.02646 0,-0.62817 -0.08019,-1.17882 -0.0053,-0.0321 -0.0053,-0.0428 0,-0.0294 0.02673,-0.0374 0.101576,-0.005 0.29671,-0.0294 0.261961,-0.0481 0.294038,-0.0481 0.04544,0 0.05881,0.16038 0.008,0.10693 0.01337,0.21118 0,0.0214 0.01604,0.0428 0.01871,-0.0107 0.04277,-0.0374 0.374229,-0.38225 0.756478,-0.38225 0.529267,0 0.892804,0.41433 0.350172,0.39829 0.350172,0.93825 z m -0.625498,-0.0107 q 0,-0.32076 -0.20048,-0.56401 -0.211172,-0.25929 -0.526594,-0.25929 -0.310076,0 -0.507883,0.26731 -0.181768,0.24057 -0.181768,0.56134 0,0.32611 0.187114,0.56669 0.205827,0.25929 0.523922,0.25929 0.304729,0 0.513228,-0.26998 0.192461,-0.25127 0.192461,-0.56135 z"
           style="font-family:'Berlin Sans FB';-inkscape-font-specification:'Berlin Sans FB, Normal'"
           id="path584" /><path
           d="m 86.509916,126.38314 q 0,0.55867 -0.36621,0.95428 -0.374229,0.40898 -0.927554,0.40898 -0.555998,0 -0.930227,-0.4063 -0.36621,-0.39295 -0.36621,-0.95162 0,-0.55867 0.36621,-0.95161 0.376902,-0.40096 0.930227,-0.40096 0.550652,0 0.924881,0.40096 0.368883,0.39027 0.368883,0.94627 z m -0.564017,0.005 q 0,-0.32611 -0.20048,-0.55599 -0.208499,-0.24325 -0.529267,-0.24325 -0.320768,0 -0.53194,0.24057 -0.20048,0.23256 -0.20048,0.55867 0,0.32077 0.203153,0.556 0.213845,0.2486 0.529267,0.2486 0.318095,0 0.529267,-0.2486 0.20048,-0.23523 0.20048,-0.556 z"
           style="font-family:'Berlin Sans FB';-inkscape-font-specification:'Berlin Sans FB, Normal'"
           id="path586" /><path
           d="m 88.752619,125.26045 q 0,0.0588 -0.06148,0.26196 -0.06148,0.20315 -0.08554,0.20315 -0.120288,-0.0535 -0.243249,-0.10692 -0.120288,-0.0535 -0.264634,-0.0535 -0.328787,0 -0.547978,0.24325 -0.219192,0.24325 -0.219192,0.57471 0,0.32611 0.219192,0.56401 0.224537,0.24593 0.547978,0.24593 0.179096,0 0.352845,-0.0882 0.173749,-0.0882 0.152365,-0.0882 0.03475,0 0.07752,0.22454 0.0401,0.20316 0.0401,0.28067 0,0.0829 -0.312749,0.16306 -0.26196,0.0668 -0.387595,0.0668 -0.550651,0 -0.930227,-0.41165 -0.371556,-0.40096 -0.371556,-0.95696 0,-0.56669 0.363537,-0.96231 0.374229,-0.4063 0.9329,-0.4063 0.37423,0 0.684305,0.18979 0.05346,0.0321 0.05346,0.0561 z"
           style="font-family:'Berlin Sans FB';-inkscape-font-specification:'Berlin Sans FB, Normal'"
           id="path588" /><path
           d="m 91.714377,125.8512 q 0,0.69499 -0.644209,0.93022 0,0.13633 0.267306,0.49452 0.267307,0.35552 0.267307,0.35552 0,0.0401 -0.267307,0.0535 -0.176422,0.008 -0.264633,0.008 -0.189788,0 -0.237903,-0.0802 -0.125634,-0.21385 -0.395614,-0.62283 -0.03208,-0.0481 -0.580055,-0.0401 l -0.10425,0.003 v 0.66025 q 0,0.0829 -0.05881,0.0829 -0.08554,0 -0.253941,-0.003 -0.16573,-0.003 -0.251268,-0.003 -0.05881,0 -0.05881,-0.10425 v -1.66265 q 0,-0.32611 -0.02673,-0.97567 -0.02406,-0.64955 -0.02406,-0.97567 0,-0.0481 0.05079,-0.0535 0.08821,-0.003 0.267307,-0.0107 0.03742,-0.003 0.157711,-0.0187 0.09623,-0.0134 0.155038,-0.0134 0.03742,0 0.03742,0.0642 0,0.14434 -0.01337,0.43036 -0.01336,0.28602 -0.01336,0.43036 v 0.68965 q 0,0.0561 0.02406,0.0561 0.06415,-0.0535 0.192461,-0.15771 0.449075,-0.3475 0.855381,-0.3475 0.395614,0 0.646882,0.20315 0.272653,0.22187 0.272653,0.60679 z m -0.644209,0.12563 q 0,-0.38225 -0.494518,-0.38225 -0.368883,0 -0.831323,0.49185 v 0.39828 q 0.216518,0.0401 0.523921,0.0401 0.310075,0 0.529267,-0.11761 0.272653,-0.14702 0.272653,-0.43037 z"
           style="font-family:'Berlin Sans FB';-inkscape-font-specification:'Berlin Sans FB, Normal'"
           id="path590" /><path
           d="m 94.344673,126.24948 q 0,0.19781 -0.171076,0.26464 -0.114942,0.0428 -1.654628,0.15771 0.03475,0.23523 0.259287,0.40096 0.213846,0.15771 0.459768,0.15771 0.422344,0 0.775189,-0.27265 0.04277,-0.0347 0.08554,-0.0695 0.02139,0 0.02673,0.005 0.008,0.005 0.101576,0.18712 0.09356,0.17909 0.09356,0.19246 0,0.016 -0.04277,0.0615 -0.39294,0.417 -1.007746,0.417 -0.620151,0 -0.989034,-0.36889 -0.368883,-0.37155 -0.368883,-0.98903 0,-0.55065 0.352844,-0.95963 0.371557,-0.42502 0.911516,-0.42502 0.502537,0 0.839343,0.36888 0.328787,0.3582 0.328787,0.87142 z m -0.63619,-0.16305 q 0,-0.22187 -0.176422,-0.39294 -0.173749,-0.17108 -0.392941,-0.17108 -0.245922,0 -0.438383,0.19781 -0.189787,0.1978 -0.189787,0.44373 0,0.0561 0.09623,0.0561 0.395614,0 0.946265,-0.0802 0.155038,-0.0214 0.155038,-0.0535 z"
           style="font-family:'Berlin Sans FB';-inkscape-font-specification:'Berlin Sans FB, Normal'"
           id="path592" /><path
           d="m 96.207801,127.19308 q 0,0.0588 -0.01069,0.16038 -0.01337,0.12564 -0.01604,0.16306 -0.0027,0.0481 -0.008,0.0588 -0.01069,0.0187 -0.05079,0.0374 -0.219192,0.10425 -0.689651,0.10425 -0.625498,0 -0.625498,-0.56669 0,-0.22721 0.01069,-0.68163 0.01069,-0.4571 0.01069,-0.68431 0,-0.10959 -0.109596,-0.11761 -0.0989,0 -0.195134,-0.003 -0.05613,-0.0134 -0.05613,-0.21919 0,-0.0775 0.01069,-0.16306 0.008,-0.0641 0.08554,-0.0775 0.06683,0 0.13098,-0.003 0.122961,-0.005 0.122961,-0.10959 0,-0.10693 -0.008,-0.32612 -0.0053,-0.21919 -0.0053,-0.32878 0,-0.19514 0.07485,-0.19514 0.02406,0 0.502536,0.0829 0.06148,0.008 0.06148,0.0588 0,0.11762 -0.01871,0.35285 -0.01604,0.23523 -0.01604,0.35284 0,0.0775 0.07217,0.0775 h 0.641536 q 0.04544,0 0.04544,0.0321 0,0.0321 -0.01069,0.10425 -0.008,0.0695 -0.008,0.10425 0,0.0401 0.0027,0.12296 0.0027,0.0829 0.0027,0.12296 0,0.0508 -0.07485,0.0508 -0.106923,0 -0.323441,-0.0134 -0.216519,-0.016 -0.323441,-0.016 -0.02139,0 -0.03208,0.15236 -0.01337,0.18979 -0.01337,0.53194 v 0.39829 q 0,0.22988 0.04277,0.32077 0.06415,0.13899 0.264633,0.13899 0.08287,0 0.243249,-0.0348 0.160384,-0.0374 0.237903,-0.0374 0.03208,0 0.03208,0.0481 z"
           style="font-family:'Berlin Sans FB';-inkscape-font-specification:'Berlin Sans FB, Normal'"
           id="path594" /><path
           d="m 98.284774,125.75497 -0.0027,0.0241 q -0.02406,0.0936 -0.06415,0.27533 -0.008,0.0882 -0.03475,0.25662 -0.0053,0.0241 -0.152365,0.0321 -0.101577,0.005 -0.288691,0 -0.240576,-0.005 -0.224538,-0.005 -0.16573,0 -0.491844,0.0321 -0.326114,0.0294 -0.489171,0.0294 -0.07217,0 -0.07217,-0.0882 0,-0.12297 0.155038,-0.51056 0.01336,-0.0374 0.07485,-0.0374 0.09356,0 0.275326,0.008 0.181768,0.005 0.275325,0.005 0.163057,0 0.491845,-0.0321 0.328787,-0.0348 0.491844,-0.0348 0.05881,0 0.05613,0.0454 z"
           style="font-family:'Berlin Sans FB';-inkscape-font-specification:'Berlin Sans FB, Normal'"
           id="path596" /><path
           d="m 99.95544,126.86162 q 0,0.39828 -0.318095,0.63886 -0.288691,0.21919 -0.703016,0.21919 -0.160384,0 -0.181769,-0.008 -0.04544,-0.0214 -0.04544,-0.13098 0,-0.0588 -0.01604,-0.17642 -0.01336,-0.11762 -0.01336,-0.17375 0,-0.0348 0.04811,-0.0454 0.03475,-0.008 0.0989,0 0.08286,0.008 0.08019,0.008 0.50521,0 0.50521,-0.31008 0,-0.14702 -0.221865,-0.26998 -0.360864,-0.19781 -0.414325,-0.24325 -0.221865,-0.18979 -0.221865,-0.49719 0,-0.40096 0.302057,-0.6255 0.272653,-0.20048 0.689651,-0.20048 0.03742,0 0.05346,0.0348 0.01871,0.0348 0.06683,0.21652 0.05079,0.18177 0.05079,0.21919 0,0.0294 -0.05079,0.0374 -0.171076,0.0241 -0.344825,0.0454 -0.205827,0.0561 -0.205827,0.22454 0,0.12029 0.216519,0.24325 0.320768,0.17909 0.406306,0.25928 0.219191,0.2085 0.219191,0.53462 z"
           style="font-family:'Berlin Sans FB';-inkscape-font-specification:'Berlin Sans FB, Normal'"
           id="path598" /><path
           d="m 101.03536,124.48793 q 0,0.32879 -0.36621,0.32879 -0.37156,0 -0.37156,-0.32879 0,-0.14701 0.11494,-0.24325 0.10693,-0.0909 0.25662,-0.0909 0.14969,0 0.25661,0.0936 0.1096,0.0936 0.1096,0.24057 z m -0.0187,0.7244 q 0,0.20583 -0.0267,0.62283 -0.0241,0.41432 -0.0241,0.62282 0,0.19514 0.008,0.58541 0.008,0.38759 0.008,0.58005 0,0.0561 -0.0481,0.0561 h -0.52125 q -0.0561,0 -0.0561,-0.1096 0,-0.18444 0.008,-0.55333 0.0107,-0.37155 0.0107,-0.55867 0,-0.2085 -0.0321,-0.62549 -0.0294,-0.417 -0.0294,-0.6255 0,-0.0454 0.0561,-0.0454 0.0481,0 0.14702,0.0134 0.10158,0.0134 0.15237,0.0134 0.0508,0 0.14969,-0.0134 0.10158,-0.0134 0.15236,-0.0134 0.0455,0 0.0455,0.0508 z"
           style="font-family:'Berlin Sans FB';-inkscape-font-specification:'Berlin Sans FB, Normal'"
           id="path600" /><path
           d="m 103.52933,127.17704 q 0,0.0134 -0.0401,0.18979 -0.0428,0.18978 -0.0481,0.23523 -0.0107,0.0936 -0.0481,0.0936 -0.0936,0 -0.25126,-0.0107 -0.1791,-0.0134 -0.2486,-0.016 -0.17909,-0.005 -0.51323,-0.005 -0.25928,0 -0.57471,0.0214 -0.39561,0.0267 -0.33948,0.0267 -0.0561,0 -0.0722,-0.0481 -0.0374,-0.12831 -0.0374,-0.29939 0,-0.024 0.003,-0.0668 0.003,-0.0455 0.003,-0.0668 0,-0.0374 0.0561,-0.0882 0.0588,-0.0535 0.57204,-0.60679 0.25928,-0.26998 0.73509,-0.83132 h -1.17882 q -0.0428,0 -0.0428,-0.0561 0,-0.0775 0.0321,-0.22988 0.0348,-0.15504 0.0348,-0.22988 0,-0.0321 0.0748,-0.0321 0.14969,0 0.4464,0.0134 0.29671,0.0134 0.4464,0.0134 0.73242,0 0.82598,0.0107 0.0668,0.008 0.0668,0.0561 0,0.40363 -0.0321,0.45442 -0.0267,0.0374 -0.46244,0.52659 -0.28067,0.3181 -0.84736,0.94627 0.89013,-0.0241 1.3793,-0.0241 0.0615,0 0.0615,0.0241 z"
           style="font-family:'Berlin Sans FB';-inkscape-font-specification:'Berlin Sans FB, Normal'"
           id="path602" /><path
           d="m 106.11418,126.24948 q 0,0.19781 -0.17107,0.26464 -0.11494,0.0428 -1.65463,0.15771 0.0347,0.23523 0.25929,0.40096 0.21384,0.15771 0.45976,0.15771 0.42235,0 0.77519,-0.27265 0.0428,-0.0347 0.0855,-0.0695 0.0214,0 0.0267,0.005 0.008,0.005 0.10158,0.18712 0.0936,0.17909 0.0936,0.19246 0,0.016 -0.0428,0.0615 -0.39294,0.417 -1.00775,0.417 -0.62015,0 -0.98903,-0.36889 -0.36889,-0.37155 -0.36889,-0.98903 0,-0.55065 0.35285,-0.95963 0.37155,-0.42502 0.91151,-0.42502 0.50254,0 0.83935,0.36888 0.32878,0.3582 0.32878,0.87142 z m -0.63619,-0.16305 q 0,-0.22187 -0.17642,-0.39294 -0.17375,-0.17108 -0.39294,-0.17108 -0.24592,0 -0.43838,0.19781 -0.18979,0.1978 -0.18979,0.44373 0,0.0561 0.0962,0.0561 0.39561,0 0.94627,-0.0802 0.15503,-0.0214 0.15503,-0.0535 z"
           style="font-family:'Berlin Sans FB';-inkscape-font-specification:'Berlin Sans FB, Normal'"
           id="path604" /><path
           d="m 109.05723,123.95599 q 0,0.34483 -0.0321,1.03448 -0.0294,0.68698 -0.0294,1.02913 0,1.05586 0.0454,1.59849 l 0.003,0.0348 q 0.003,0.0267 -0.0722,0.0348 -0.0508,0.005 -0.14434,0 -0.11227,-0.008 -0.10425,-0.008 -0.0401,0 -0.11762,0.008 -0.0775,0.008 -0.11761,0.008 -0.0374,0 -0.0455,-0.18444 -0.005,-0.18711 -0.0187,-0.18979 -0.016,0.008 -0.0401,0.0347 -0.36621,0.39562 -0.84202,0.39562 -0.53996,0 -0.88746,-0.41165 -0.32878,-0.3876 -0.32878,-0.93558 0,-0.56936 0.33146,-0.95696 0.3475,-0.4063 0.90617,-0.4063 0.3368,0 0.58807,0.19781 0.11494,0.0989 0.22721,0.20048 0.0214,-0.008 0.0214,-0.0374 v -0.86607 q 0,-0.0882 -0.008,-0.26731 -0.008,-0.17909 -0.008,-0.26998 0,-0.0641 0.0428,-0.0641 0.0989,0 0.29403,-0.016 0.19514,-0.0187 0.29137,-0.0187 0.0454,0 0.0454,0.0561 z m -0.66827,2.43249 q 0,-0.32076 -0.1978,-0.56401 -0.21118,-0.25929 -0.52392,-0.25929 -0.32879,0 -0.54264,0.25661 -0.20315,0.24058 -0.20315,0.57739 0,0.32076 0.21117,0.55867 0.21652,0.25127 0.53462,0.25127 0.32076,0 0.52926,-0.25395 0.19246,-0.2379 0.19246,-0.56669 z"
           style="font-family:'Berlin Sans FB';-inkscape-font-specification:'Berlin Sans FB, Normal'"
           id="path606" /><path
           d="m 112.15264,126.86162 q 0,0.39828 -0.31809,0.63886 -0.28869,0.21919 -0.70302,0.21919 -0.16038,0 -0.18177,-0.008 -0.0454,-0.0214 -0.0454,-0.13098 0,-0.0588 -0.016,-0.17642 -0.0134,-0.11762 -0.0134,-0.17375 0,-0.0348 0.0481,-0.0454 0.0348,-0.008 0.0989,0 0.0829,0.008 0.0802,0.008 0.50521,0 0.50521,-0.31008 0,-0.14702 -0.22187,-0.26998 -0.36086,-0.19781 -0.41432,-0.24325 -0.22187,-0.18979 -0.22187,-0.49719 0,-0.40096 0.30206,-0.6255 0.27265,-0.20048 0.68965,-0.20048 0.0374,0 0.0535,0.0348 0.0187,0.0348 0.0668,0.21652 0.0508,0.18177 0.0508,0.21919 0,0.0294 -0.0508,0.0374 -0.17108,0.0241 -0.34483,0.0454 -0.20582,0.0561 -0.20582,0.22454 0,0.12029 0.21652,0.24325 0.32076,0.17909 0.4063,0.25928 0.21919,0.2085 0.21919,0.53462 z"
           style="font-family:'Berlin Sans FB';-inkscape-font-specification:'Berlin Sans FB, Normal'"
           id="path608" /><path
           d="m 114.95936,126.38314 q 0,0.55867 -0.36621,0.95428 -0.37423,0.40898 -0.92755,0.40898 -0.556,0 -0.93023,-0.4063 -0.36621,-0.39295 -0.36621,-0.95162 0,-0.55867 0.36621,-0.95161 0.3769,-0.40096 0.93023,-0.40096 0.55065,0 0.92488,0.40096 0.36888,0.39027 0.36888,0.94627 z m -0.56401,0.005 q 0,-0.32611 -0.20048,-0.55599 -0.2085,-0.24325 -0.52927,-0.24325 -0.32077,0 -0.53194,0.24057 -0.20048,0.23256 -0.20048,0.55867 0,0.32077 0.20315,0.556 0.21385,0.2486 0.52927,0.2486 0.31809,0 0.52927,-0.2486 0.20048,-0.23523 0.20048,-0.556 z"
           style="font-family:'Berlin Sans FB';-inkscape-font-specification:'Berlin Sans FB, Normal'"
           id="path610" /><path
           d="m 117.81152,125.26045 q 0,0.19513 -0.016,0.59075 -0.016,0.39294 -0.016,0.59075 0,0.19513 0.0107,0.5854 0.0134,0.38759 0.0134,0.58273 0,0.0535 -0.0508,0.0695 -0.0214,0.005 -0.54264,0.005 -0.0321,0 -0.0401,-0.20048 -0.005,-0.20048 -0.0294,-0.20048 -0.0134,0 -0.0401,0.0241 -0.4464,0.38759 -0.88211,0.38759 -0.59075,0 -0.78054,-0.42769 -0.11761,-0.26463 -0.11761,-0.95161 0,-0.62015 0.0989,-1.05051 0.0241,-0.10425 0.0882,-0.10425 0.0775,0 0.23256,0.003 0.15503,0.003 0.23255,0.003 0.0535,0 0.0535,0.0588 0,0.10425 -0.0348,0.3475 -0.0374,0.25929 -0.0401,0.36621 -0.008,0.16038 -0.008,0.35284 0,0.46779 0.0668,0.62817 0.11494,0.2887 0.51055,0.2887 0.16841,0 0.39829,-0.16573 0.24325,-0.17375 0.25127,-0.33414 0.0134,-0.20048 0.0134,-1.41138 0,-0.13098 0.1096,-0.13098 h 0.44105 q 0.0775,0 0.0775,0.0936 z"
           style="font-family:'Berlin Sans FB';-inkscape-font-specification:'Berlin Sans FB, Normal'"
           id="path612" /><path
           d="m 120.7118,127.63146 q 0,0.0588 -0.0535,0.0588 -0.0882,0 -0.26463,-0.003 -0.17375,-0.003 -0.26196,-0.003 -0.0481,0 -0.0481,-0.0775 0,-0.13098 0.008,-0.39828 0.008,-0.26731 0.008,-0.40096 0,-0.10693 -0.003,-0.3181 -0.003,-0.21384 -0.003,-0.32077 0,-0.30473 -0.0882,-0.43036 -0.10692,-0.14969 -0.39561,-0.14969 -0.13366,0 -0.37156,0.14969 -0.25127,0.15771 -0.25127,0.28067 v 1.60384 q 0,0.0668 -0.0508,0.0668 -0.0855,0 -0.25661,-0.003 -0.17108,-0.003 -0.25661,-0.003 -0.0561,0 -0.0561,-0.0615 0,-0.21117 0.005,-0.63352 0.008,-0.42234 0.008,-0.63619 0,-0.56936 -0.12029,-1.05051 -0.008,-0.0241 -0.008,-0.0348 0,-0.0267 0.0348,-0.0374 0.0187,-0.003 0.30473,-0.0481 0.28869,-0.0481 0.30206,-0.0481 0.016,0 0.0214,0.0428 0.0134,0.16574 0.0615,0.33414 0.139,-0.1096 0.36621,-0.27265 0.28067,-0.17108 0.54263,-0.17108 0.50254,0 0.68698,0.29136 0.13633,0.21385 0.13633,0.69233 0,0.0829 -0.005,0.25394 -0.003,0.17108 -0.003,0.25661 0,0.1791 0.005,0.53462 0.005,0.35551 0.005,0.53461 z"
           style="font-family:'Berlin Sans FB';-inkscape-font-specification:'Berlin Sans FB, Normal'"
           id="path614" /><path
           d="m 123.7885,123.95599 q 0,0.34483 -0.0321,1.03448 -0.0294,0.68698 -0.0294,1.02913 0,1.05586 0.0454,1.59849 l 0.003,0.0348 q 0.003,0.0267 -0.0722,0.0348 -0.0508,0.005 -0.14434,0 -0.11227,-0.008 -0.10425,-0.008 -0.0401,0 -0.11762,0.008 -0.0775,0.008 -0.11761,0.008 -0.0374,0 -0.0455,-0.18444 -0.005,-0.18711 -0.0187,-0.18979 -0.016,0.008 -0.0401,0.0347 -0.36621,0.39562 -0.84202,0.39562 -0.53996,0 -0.88746,-0.41165 -0.32878,-0.3876 -0.32878,-0.93558 0,-0.56936 0.33146,-0.95696 0.34749,-0.4063 0.90617,-0.4063 0.3368,0 0.58807,0.19781 0.11494,0.0989 0.22721,0.20048 0.0214,-0.008 0.0214,-0.0374 v -0.86607 q 0,-0.0882 -0.008,-0.26731 -0.008,-0.17909 -0.008,-0.26998 0,-0.0641 0.0428,-0.0641 0.0989,0 0.29403,-0.016 0.19514,-0.0187 0.29137,-0.0187 0.0454,0 0.0454,0.0561 z m -0.66827,2.43249 q 0,-0.32076 -0.1978,-0.56401 -0.21118,-0.25929 -0.52392,-0.25929 -0.32879,0 -0.54264,0.25661 -0.20315,0.24058 -0.20315,0.57739 0,0.32076 0.21117,0.55867 0.21652,0.25127 0.53462,0.25127 0.32076,0 0.52926,-0.25395 0.19246,-0.2379 0.19246,-0.56669 z"
           style="font-family:'Berlin Sans FB';-inkscape-font-specification:'Berlin Sans FB, Normal'"
           id="path616" /><path
           d="m 128.30598,126.39918 q 0,0.53996 -0.34215,0.93824 -0.35819,0.41967 -0.89013,0.41967 -0.33146,0 -0.58005,-0.20582 -0.11227,-0.10425 -0.22454,-0.21117 -0.016,0.008 -0.0214,0.0428 -0.003,0.016 -0.003,0.29939 l -0.003,0.7538 q 0,0.0855 -0.0615,0.0855 -0.41166,0 -0.4865,-0.0107 -0.0615,-0.008 -0.0615,-0.0695 0,-0.34215 0.005,-1.02646 0.005,-0.6843 0.005,-1.02646 0,-0.62817 -0.0802,-1.17882 -0.005,-0.0321 -0.005,-0.0428 0,-0.0294 0.0267,-0.0374 0.10158,-0.005 0.29671,-0.0294 0.26196,-0.0481 0.29404,-0.0481 0.0454,0 0.0588,0.16038 0.008,0.10693 0.0134,0.21118 0,0.0214 0.016,0.0428 0.0187,-0.0107 0.0428,-0.0374 0.37423,-0.38225 0.75648,-0.38225 0.52927,0 0.8928,0.41433 0.35017,0.39829 0.35017,0.93825 z m -0.62549,-0.0107 q 0,-0.32076 -0.20048,-0.56401 -0.21118,-0.25929 -0.5266,-0.25929 -0.31007,0 -0.50788,0.26731 -0.18177,0.24057 -0.18177,0.56134 0,0.32611 0.18712,0.56669 0.20582,0.25929 0.52392,0.25929 0.30473,0 0.51323,-0.26998 0.19246,-0.25127 0.19246,-0.56135 z"
           style="font-family:'Berlin Sans FB';-inkscape-font-specification:'Berlin Sans FB, Normal'"
           id="path618" /><path
           d="m 131.31853,125.2658 q 0,0.0107 -0.008,0.0481 -0.10425,0.61213 -0.10425,1.05586 0,0.0267 0.0668,1.20021 l 0.003,0.0374 q 0.003,0.0775 -0.0722,0.0775 -0.0722,0 -0.22187,0.016 -0.14702,0.0187 -0.21919,0.0187 -0.0508,0 -0.0775,-0.18711 -0.0267,-0.18712 -0.0508,-0.18712 -0.016,0 -0.14434,0.10425 -0.15771,0.12831 -0.29404,0.19514 -0.21117,0.10692 -0.42234,0.10692 -0.51858,0 -0.8741,-0.41433 -0.3368,-0.39561 -0.3368,-0.92221 0,-0.59342 0.33948,-0.98101 0.35552,-0.40363 0.93557,-0.40363 0.40898,0 0.71371,0.28334 0.0454,0.0535 0.14167,0.15504 0.008,0.008 0.016,0.008 0.016,0 0.0454,-0.1684 0.0294,-0.16841 0.0748,-0.16841 0.0722,0 0.26998,0.0401 0.21919,0.0481 0.21919,0.0855 z m -0.68163,1.11734 q 0,-0.32879 -0.19514,-0.56402 -0.20582,-0.25394 -0.52659,-0.25394 -0.32077,0 -0.53461,0.25127 -0.20583,0.24057 -0.20583,0.56669 0,0.32344 0.20583,0.56134 0.21384,0.2486 0.53461,0.2486 0.31275,0 0.52392,-0.25394 0.19781,-0.23791 0.19781,-0.556 z"
           style="font-family:'Berlin Sans FB';-inkscape-font-specification:'Berlin Sans FB, Normal'"
           id="path620" /><path
           d="m 132.43053,123.97738 -0.003,0.0348 q -0.0588,0.99438 -0.0588,1.70809 0,0.31809 0.0107,0.95428 0.0107,0.63352 0.0107,0.94894 0,0.0615 -0.0428,0.0615 h -0.51055 q -0.0481,0 -0.0481,-0.0615 0,-0.31542 0.005,-0.94894 0.005,-0.63619 0.005,-0.95428 0,-0.28869 -0.0294,-0.86608 -0.0267,-0.58005 -0.0267,-0.86607 0,-0.0535 0.0561,-0.0535 0.0481,0 0.14435,0.008 0.0962,0.008 0.14434,0.008 0.0508,0 0.1497,-0.008 0.0989,-0.008 0.14701,-0.008 0.0481,0 0.0455,0.0428 z"
           style="font-family:'Berlin Sans FB';-inkscape-font-specification:'Berlin Sans FB, Normal'"
           id="path622" /><path
           d="m 135.22388,126.24948 q 0,0.19781 -0.17108,0.26464 -0.11494,0.0428 -1.65463,0.15771 0.0348,0.23523 0.25929,0.40096 0.21385,0.15771 0.45977,0.15771 0.42234,0 0.77519,-0.27265 0.0428,-0.0347 0.0855,-0.0695 0.0214,0 0.0267,0.005 0.008,0.005 0.10157,0.18712 0.0936,0.17909 0.0936,0.19246 0,0.016 -0.0428,0.0615 -0.39294,0.417 -1.00774,0.417 -0.62016,0 -0.98904,-0.36889 -0.36888,-0.37155 -0.36888,-0.98903 0,-0.55065 0.35284,-0.95963 0.37156,-0.42502 0.91152,-0.42502 0.50254,0 0.83934,0.36888 0.32879,0.3582 0.32879,0.87142 z m -0.63619,-0.16305 q 0,-0.22187 -0.17642,-0.39294 -0.17375,-0.17108 -0.39294,-0.17108 -0.24593,0 -0.43839,0.19781 -0.18978,0.1978 -0.18978,0.44373 0,0.0561 0.0962,0.0561 0.39561,0 0.94626,-0.0802 0.15504,-0.0214 0.15504,-0.0535 z"
           style="font-family:'Berlin Sans FB';-inkscape-font-specification:'Berlin Sans FB, Normal'"
           id="path624" /><path
           d="m 137.087,127.19308 q 0,0.0588 -0.0107,0.16038 -0.0134,0.12564 -0.016,0.16306 -0.003,0.0481 -0.008,0.0588 -0.0107,0.0187 -0.0508,0.0374 -0.21919,0.10425 -0.68965,0.10425 -0.62549,0 -0.62549,-0.56669 0,-0.22721 0.0107,-0.68163 0.0107,-0.4571 0.0107,-0.68431 0,-0.10959 -0.1096,-0.11761 -0.0989,0 -0.19513,-0.003 -0.0561,-0.0134 -0.0561,-0.21919 0,-0.0775 0.0107,-0.16306 0.008,-0.0641 0.0855,-0.0775 0.0668,0 0.13098,-0.003 0.12296,-0.005 0.12296,-0.10959 0,-0.10693 -0.008,-0.32612 -0.005,-0.21919 -0.005,-0.32878 0,-0.19514 0.0748,-0.19514 0.0241,0 0.50254,0.0829 0.0615,0.008 0.0615,0.0588 0,0.11762 -0.0187,0.35285 -0.016,0.23523 -0.016,0.35284 0,0.0775 0.0722,0.0775 h 0.64153 q 0.0454,0 0.0454,0.0321 0,0.0321 -0.0107,0.10425 -0.008,0.0695 -0.008,0.10425 0,0.0401 0.003,0.12296 0.003,0.0829 0.003,0.12296 0,0.0508 -0.0748,0.0508 -0.10693,0 -0.32345,-0.0134 -0.21651,-0.016 -0.32344,-0.016 -0.0214,0 -0.0321,0.15236 -0.0134,0.18979 -0.0134,0.53194 v 0.39829 q 0,0.22988 0.0428,0.32077 0.0641,0.13899 0.26463,0.13899 0.0829,0 0.24325,-0.0348 0.16039,-0.0374 0.23791,-0.0374 0.0321,0 0.0321,0.0481 z"
           style="font-family:'Berlin Sans FB';-inkscape-font-specification:'Berlin Sans FB, Normal'"
           id="path626" /><path
           d="m 138.95815,127.19308 q 0,0.0588 -0.0107,0.16038 -0.0134,0.12564 -0.016,0.16306 -0.003,0.0481 -0.008,0.0588 -0.0107,0.0187 -0.0508,0.0374 -0.21919,0.10425 -0.68965,0.10425 -0.6255,0 -0.6255,-0.56669 0,-0.22721 0.0107,-0.68163 0.0107,-0.4571 0.0107,-0.68431 0,-0.10959 -0.1096,-0.11761 -0.0989,0 -0.19513,-0.003 -0.0561,-0.0134 -0.0561,-0.21919 0,-0.0775 0.0107,-0.16306 0.008,-0.0641 0.0855,-0.0775 0.0668,0 0.13098,-0.003 0.12297,-0.005 0.12297,-0.10959 0,-0.10693 -0.008,-0.32612 -0.005,-0.21919 -0.005,-0.32878 0,-0.19514 0.0748,-0.19514 0.0241,0 0.50253,0.0829 0.0615,0.008 0.0615,0.0588 0,0.11762 -0.0187,0.35285 -0.016,0.23523 -0.016,0.35284 0,0.0775 0.0722,0.0775 h 0.64153 q 0.0454,0 0.0454,0.0321 0,0.0321 -0.0107,0.10425 -0.008,0.0695 -0.008,0.10425 0,0.0401 0.003,0.12296 0.003,0.0829 0.003,0.12296 0,0.0508 -0.0748,0.0508 -0.10692,0 -0.32344,-0.0134 -0.21652,-0.016 -0.32344,-0.016 -0.0214,0 -0.0321,0.15236 -0.0134,0.18979 -0.0134,0.53194 v 0.39829 q 0,0.22988 0.0428,0.32077 0.0641,0.13899 0.26463,0.13899 0.0829,0 0.24325,-0.0348 0.16038,-0.0374 0.2379,-0.0374 0.0321,0 0.0321,0.0481 z"
           style="font-family:'Berlin Sans FB';-inkscape-font-specification:'Berlin Sans FB, Normal'"
           id="path628" /><path
           d="m 141.60449,126.24948 q 0,0.19781 -0.17108,0.26464 -0.11494,0.0428 -1.65463,0.15771 0.0347,0.23523 0.25929,0.40096 0.21384,0.15771 0.45977,0.15771 0.42234,0 0.77519,-0.27265 0.0428,-0.0347 0.0855,-0.0695 0.0214,0 0.0267,0.005 0.008,0.005 0.10158,0.18712 0.0936,0.17909 0.0936,0.19246 0,0.016 -0.0428,0.0615 -0.39294,0.417 -1.00775,0.417 -0.62015,0 -0.98903,-0.36889 -0.36888,-0.37155 -0.36888,-0.98903 0,-0.55065 0.35284,-0.95963 0.37156,-0.42502 0.91152,-0.42502 0.50253,0 0.83934,0.36888 0.32879,0.3582 0.32879,0.87142 z m -0.63619,-0.16305 q 0,-0.22187 -0.17643,-0.39294 -0.17375,-0.17108 -0.39294,-0.17108 -0.24592,0 -0.43838,0.19781 -0.18979,0.1978 -0.18979,0.44373 0,0.0561 0.0962,0.0561 0.39562,0 0.94627,-0.0802 0.15504,-0.0214 0.15504,-0.0535 z"
           style="font-family:'Berlin Sans FB';-inkscape-font-specification:'Berlin Sans FB, Normal'"
           id="path630" /></g><g
         aria-label="Padium"
         id="text421"
         style="font-size:22.1902px;font-family:'Bebas Neue';-inkscape-font-specification:'Bebas Neue';text-align:center;text-anchor:middle;stroke-width:1.74726;stroke-linecap:round"><path
           d="m 81.648054,97.006005 q 0,2.546238 -1.376053,4.073985 -1.419392,1.57108 -3.933126,1.57108 -0.617598,0 -1.874465,-0.0433 -1.246032,-0.0542 -1.874465,-0.0542 -0.346722,0 -0.346722,0.44424 0,0.57426 0.06501,1.72278 0.07585,1.14851 0.07585,1.72277 0,0.1842 -0.205866,0.1842 -0.227536,0 -0.693443,-0.0433 -0.455073,-0.0542 -0.682609,-0.0542 -0.195031,0 -0.574258,0.0325 -0.379227,0.0325 -0.563423,0.0325 -0.270877,0 -0.270877,-0.33589 0,-1.18102 0.09752,-3.56473 0.10835,-2.38371 0.10835,-3.575569 0,-3.380538 -0.249206,-7.259489 l -0.01084,-0.162526 q -0.01084,-0.238372 0.281711,-0.238372 0.585094,0 1.75528,0.01084 1.181021,0.01084 1.77695,0.01084 0.509247,0 1.527743,-0.04334 1.018495,-0.04334 1.527743,-0.04334 2.394548,0 3.933127,1.625259 1.506073,1.592753 1.506073,3.987302 z m -2.730435,0.162525 q 0,-1.625258 -0.87764,-2.600414 -0.910145,-1.018495 -2.513733,-1.018495 -0.498413,0 -1.77695,0.08668 -1.462733,0.08668 -1.506073,0.173361 -0.07585,0.130021 -0.07585,3.72726 0,0.455073 0.02167,1.365218 0.03251,0.910145 0.03251,1.36522 0,0.0975 0.238371,0.15169 0.595928,0.11918 3.304693,0.11918 1.516908,0 2.362043,-0.942646 0.790959,-0.89931 0.790959,-2.427054 z"
           style="font-family:'Berlin Sans FB';-inkscape-font-specification:'Berlin Sans FB, Normal'"
           id="path554" /><path
           d="m 93.729144,96.789303 q 0,0.04334 -0.03251,0.195031 -0.422567,2.481229 -0.422567,4.279846 0,0.10835 0.270876,4.86494 l 0.01084,0.1517 q 0.01084,0.31421 -0.292546,0.31421 -0.292547,0 -0.89931,0.065 -0.595928,0.0759 -0.888475,0.0759 -0.205866,0 -0.314217,-0.75846 -0.10835,-0.75845 -0.205866,-0.75845 -0.06501,0 -0.585093,0.42257 -0.639268,0.52008 -1.191856,0.79096 -0.85597,0.4334 -1.71194,0.4334 -2.102001,0 -3.543064,-1.67944 -1.365217,-1.60358 -1.365217,-3.73809 0,-2.405384 1.376052,-3.976468 1.441063,-1.636094 3.792271,-1.636094 1.657764,0 2.89296,1.148516 0.184196,0.216702 0.574259,0.628434 0.03251,0.03251 0.06501,0.03251 0.06501,0 0.184196,-0.682609 0.119186,-0.682608 0.303382,-0.682608 0.292546,0 1.094341,0.162525 0.888474,0.195032 0.888474,0.346722 z m -2.76294,4.529057 q 0,-1.332714 -0.790959,-2.286199 -0.834299,-1.029331 -2.134507,-1.029331 -1.300207,0 -2.167011,1.018496 -0.8343,0.975155 -0.8343,2.297034 0,1.31104 0.8343,2.27536 0.866804,1.00766 2.167011,1.00766 1.267702,0 2.123672,-1.02933 0.801794,-0.96432 0.801794,-2.25369 z"
           style="font-family:'Berlin Sans FB';-inkscape-font-specification:'Berlin Sans FB, Normal'"
           id="path556" /><path
           d="m 105.90775,91.480124 q 0,1.397723 -0.13002,4.193168 -0.11919,2.78461 -0.11919,4.171498 0,4.27985 0.1842,6.47937 l 0.0108,0.14085 q 0.0108,0.10835 -0.29254,0.14086 -0.20587,0.0217 -0.58509,0 -0.45508,-0.0325 -0.42257,-0.0325 -0.16253,0 -0.47674,0.0325 -0.31422,0.0325 -0.47675,0.0325 -0.15169,0 -0.18419,-0.74762 -0.0217,-0.75845 -0.0759,-0.76929 -0.065,0.0325 -0.16252,0.14086 -1.48441,1.60359 -3.413048,1.60359 -2.188682,0 -3.59724,-1.6686 -1.332712,-1.57108 -1.332712,-3.79227 0,-2.307869 1.343547,-3.878953 1.408558,-1.646929 3.673085,-1.646929 1.365218,0 2.383718,0.801795 0.4659,0.400897 0.92098,0.812629 0.0867,-0.03251 0.0867,-0.151691 v -3.510559 q 0,-0.357557 -0.0325,-1.083506 -0.0325,-0.725949 -0.0325,-1.094341 0,-0.260041 0.17336,-0.260041 0.40089,0 1.19185,-0.06501 0.79096,-0.07585 1.18102,-0.07585 0.1842,0 0.1842,0.227536 z m -2.70876,9.859906 q 0,-1.30021 -0.8018,-2.286199 -0.85597,-1.051001 -2.12367,-1.051001 -1.332713,0 -2.199517,1.040166 -0.823465,0.975154 -0.823465,2.340374 0,1.30021 0.85597,2.26453 0.87764,1.01849 2.167012,1.01849 1.30021,0 2.14534,-1.02933 0.78013,-0.96432 0.78013,-2.29703 z"
           style="font-family:'Berlin Sans FB';-inkscape-font-specification:'Berlin Sans FB, Normal'"
           id="path558" /><path
           d="m 110.65351,93.636301 q 0,1.332712 -1.48441,1.332712 -1.50607,0 -1.50607,-1.332712 0,-0.595928 0.46591,-0.98599 0.4334,-0.368392 1.04016,-0.368392 0.60677,0 1.04017,0.379227 0.44424,0.379227 0.44424,0.975155 z m -0.0759,2.936301 q 0,0.8343 -0.10835,2.524569 -0.0975,1.679439 -0.0975,2.524569 0,0.79096 0.0325,2.37288 0.0325,1.57108 0.0325,2.35121 0,0.22753 -0.19504,0.22753 h -2.11283 q -0.22754,0 -0.22754,-0.44424 0,-0.74761 0.0325,-2.24285 0.0433,-1.50608 0.0433,-2.26453 0,-0.84513 -0.13002,-2.535404 -0.11919,-1.690269 -0.11919,-2.535404 0,-0.184196 0.22754,-0.184196 0.19503,0 0.59593,0.05418 0.41173,0.05418 0.61759,0.05418 0.20587,0 0.60677,-0.05418 0.41173,-0.05418 0.6176,-0.05418 0.18419,0 0.18419,0.205866 z"
           style="font-family:'Berlin Sans FB';-inkscape-font-specification:'Berlin Sans FB, Normal'"
           id="path560" /><path
           d="m 122.75627,96.767633 q 0,0.79096 -0.065,2.394548 -0.065,1.592749 -0.065,2.394549 0,0.79096 0.0433,2.37288 0.0542,1.57108 0.0542,2.36204 0,0.2167 -0.20586,0.28171 -0.0867,0.0217 -2.19952,0.0217 -0.13002,0 -0.16253,-0.81263 -0.0217,-0.81263 -0.11918,-0.81263 -0.0542,0 -0.16253,0.0975 -1.80945,1.57108 -3.57557,1.57108 -2.39454,0 -3.16383,-1.73361 -0.47675,-1.07267 -0.47675,-3.85728 0,-2.513732 0.4009,-4.258177 0.0975,-0.422567 0.35756,-0.422567 0.31421,0 0.94265,0.01084 0.62843,0.01084 0.94265,0.01084 0.2167,0 0.2167,0.238371 0,0.422568 -0.14086,1.408558 -0.15169,1.051001 -0.16252,1.484403 -0.0325,0.650102 -0.0325,1.430232 0,1.89613 0.27088,2.54623 0.46591,1.17019 2.06949,1.17019 0.68261,0 1.61443,-0.67177 0.98599,-0.70428 1.01849,-1.35438 0.0542,-0.81263 0.0542,-5.720916 0,-0.530918 0.44424,-0.530918 h 1.78778 q 0.31422,0 0.31422,0.379227 z"
           style="font-family:'Berlin Sans FB';-inkscape-font-specification:'Berlin Sans FB, Normal'"
           id="path562" /><path
           d="m 141.43591,106.19413 q 0,0.42257 -0.24921,0.42257 -0.16252,0 -0.49841,-0.0325 -0.32505,-0.0325 -0.49841,-0.0325 -0.1842,0 -0.55259,0.0217 -0.36839,0.0217 -0.55259,0.0217 -0.22754,0 -0.22754,-0.50925 0,-0.49841 0.0325,-1.4844 0.0433,-0.99682 0.0433,-1.49524 0,-2.74127 -0.0217,-3.05548 -0.0867,-1.116015 -0.45507,-1.538582 -0.42257,-0.455073 -1.50608,-0.455073 -0.68261,0 -1.53858,0.650104 -0.88847,0.682609 -0.92098,1.343551 -0.0433,0.84513 -0.0433,3.08799 0,0.53092 0.0433,1.59275 0.0433,1.06184 0.0433,1.59276 0,0.29254 -0.19503,0.29254 -0.19503,0 -0.57425,-0.0325 -0.3684,-0.0325 -0.56343,-0.0325 -0.17336,0 -0.50925,0.0217 -0.33588,0.0217 -0.50924,0.0217 -0.2167,0 -0.2167,-0.31421 0,-0.52009 0.0325,-1.56025 0.0325,-1.051 0.0325,-1.57109 v -2.61125 q 0,-1.224358 -0.29255,-1.744441 -0.41173,-0.736784 -1.57108,-0.736784 -0.68261,0 -1.62526,0.574258 -1.04017,0.628434 -1.04017,1.267702 v 3.163835 q 0,0.54176 0.0108,1.61443 0.0108,1.07267 0.0108,1.60359 0,0.31421 -0.2492,0.31421 h -2.01533 q -0.2167,0 -0.2167,-0.29254 0,-0.87764 0.0108,-2.63292 0.0108,-1.76612 0.0108,-2.64376 0,-1.982814 -0.42256,-3.954795 -0.0325,-0.140856 -0.0325,-0.227536 0,-0.140856 0.0975,-0.162526 0.40089,-0.04334 1.17018,-0.162526 0.35756,-0.108351 1.07267,-0.238371 l 0.0867,-0.01084 q 0.13002,0 0.23838,0.769289 0.11918,0.758454 0.20586,0.758454 0,0 0.54175,-0.476743 0.63927,-0.552588 1.27854,-0.87764 0.92098,-0.476742 1.84196,-0.476742 2.49206,0 3.17467,2.036991 0.67178,-0.866805 1.6686,-1.430228 1.06184,-0.606763 2.102,-0.606763 2.00449,0 2.77378,1.170186 0.55259,0.866805 0.55259,2.74127 0,0.357555 -0.0217,1.105175 -0.0217,0.74762 -0.0217,1.10518 0,0.68261 0.0325,2.05866 0.0325,1.36522 0.0325,2.04782 z"
           style="font-family:'Berlin Sans FB';-inkscape-font-specification:'Berlin Sans FB, Normal'"
           id="path564" /></g><g
         aria-label="mini"
         id="text475"
         style="font-size:15.9888px;font-family:'Bebas Neue';-inkscape-font-specification:'Bebas Neue';text-align:center;text-anchor:middle;stroke-width:1.25896;stroke-linecap:round"><path
           d="m 103.72068,120.21981 q 0,0.30447 -0.17956,0.30447 -0.11711,0 -0.35912,-0.0234 -0.23421,-0.0234 -0.35913,-0.0234 -0.13272,0 -0.39816,0.0156 -0.26543,0.0156 -0.39815,0.0156 -0.16395,0 -0.16395,-0.36693 0,-0.35913 0.0234,-1.06957 0.0312,-0.71824 0.0312,-1.07737 0,-1.97518 -0.0156,-2.20158 -0.0624,-0.80412 -0.32789,-1.1086 -0.30448,-0.32789 -1.08518,-0.32789 -0.491842,0 -1.108598,0.46842 -0.640176,0.49184 -0.663597,0.96807 -0.03123,0.60895 -0.03123,2.225 0,0.38255 0.03123,1.14764 0.03123,0.76509 0.03123,1.14763 0,0.21079 -0.140527,0.21079 -0.140526,0 -0.413772,-0.0234 -0.265439,-0.0234 -0.405966,-0.0234 -0.124912,0 -0.36693,0.0156 -0.242018,0.0156 -0.366931,0.0156 -0.156141,0 -0.156141,-0.22641 0,-0.37473 0.02342,-1.12421 0.02342,-0.75728 0.02342,-1.13202 v -1.88149 q 0,-0.8822 -0.21079,-1.25694 -0.296667,-0.53087 -1.13202,-0.53087 -0.491843,0 -1.171054,0.41377 -0.749475,0.45281 -0.749475,0.91342 v 2.27965 q 0,0.39036 0.0078,1.16325 0.0078,0.7729 0.0078,1.15544 0,0.22641 -0.179562,0.22641 h -1.452108 q -0.156141,0 -0.156141,-0.21079 0,-0.63237 0.0078,-1.89711 0.0078,-1.27255 0.0078,-1.90492 0,-1.42868 -0.304475,-2.84956 -0.02342,-0.10149 -0.02342,-0.16395 0,-0.10149 0.07026,-0.11711 0.28886,-0.0312 0.843159,-0.1171 0.257632,-0.0781 0.772896,-0.17176 l 0.06246,-0.008 q 0.09369,0 0.171755,0.5543 0.08588,0.54649 0.148334,0.54649 0,0 0.390351,-0.34351 0.460615,-0.39816 0.92123,-0.63237 0.663597,-0.34351 1.327195,-0.34351 1.795617,0 2.28746,1.46772 0.484036,-0.62456 1.202283,-1.03053 0.765085,-0.43719 1.514565,-0.43719 1.4443,0 1.9986,0.84316 0.39816,0.62456 0.39816,1.97518 0,0.25763 -0.0156,0.79631 -0.0156,0.53869 -0.0156,0.79632 0,0.49184 0.0234,1.48334 0.0234,0.98368 0.0234,1.47553 z"
           style="font-family:'Berlin Sans FB';-inkscape-font-specification:'Berlin Sans FB, Normal'"
           id="path567" /><path
           d="m 107.2963,111.17146 q 0,0.96026 -1.06956,0.96026 -1.08518,0 -1.08518,-0.96026 0,-0.42939 0.3357,-0.71044 0.31228,-0.26544 0.74948,-0.26544 0.43719,0 0.74947,0.27324 0.32009,0.27325 0.32009,0.70264 z m -0.0546,2.1157 q 0,0.60114 -0.0781,1.81904 -0.0703,1.21009 -0.0703,1.81904 0,0.56991 0.0234,1.70974 0.0234,1.13202 0.0234,1.69413 0,0.16394 -0.14053,0.16394 h -1.52237 q -0.16394,0 -0.16394,-0.32009 0,-0.53868 0.0234,-1.61605 0.0312,-1.08518 0.0312,-1.63167 0,-0.60895 -0.0937,-1.82685 -0.0859,-1.21789 -0.0859,-1.82684 0,-0.13272 0.16395,-0.13272 0.14053,0 0.42939,0.039 0.29666,0.039 0.445,0.039 0.14833,0 0.43719,-0.039 0.29667,-0.039 0.445,-0.039 0.13272,0 0.13272,0.14833 z"
           style="font-family:'Berlin Sans FB';-inkscape-font-specification:'Berlin Sans FB, Normal'"
           id="path569" /><path
           d="m 115.66544,120.35253 q 0,0.17175 -0.15614,0.17175 -0.25763,0 -0.7729,-0.008 -0.50745,-0.008 -0.76509,-0.008 -0.14052,0 -0.14052,-0.22641 0,-0.38254 0.0234,-1.16324 0.0234,-0.78071 0.0234,-1.17106 0,-0.31228 -0.008,-0.92904 -0.008,-0.62456 -0.008,-0.93684 0,-0.89 -0.25764,-1.25693 -0.31228,-0.4372 -1.15544,-0.4372 -0.39035,0 -1.08517,0.4372 -0.73387,0.46061 -0.73387,0.81974 v 4.68422 q 0,0.19517 -0.14833,0.19517 -0.24982,0 -0.74947,-0.008 -0.49965,-0.008 -0.74948,-0.008 -0.16395,0 -0.16395,-0.17956 0,-0.61676 0.0156,-1.85027 0.0234,-1.23351 0.0234,-1.85807 0,-1.6629 -0.35132,-3.06817 -0.0234,-0.0703 -0.0234,-0.10149 0,-0.0781 0.10149,-0.1093 0.0546,-0.008 0.89,-0.14052 0.84316,-0.14053 0.8822,-0.14053 0.0468,0 0.0624,0.12491 0.039,0.48404 0.17957,0.97588 0.40596,-0.32009 1.06956,-0.79632 0.81974,-0.49965 1.58483,-0.49965 1.46772,0 2.0064,0.85097 0.39816,0.62456 0.39816,2.02202 0,0.24202 -0.0156,0.74167 -0.008,0.49965 -0.008,0.74947 0,0.52307 0.0156,1.56141 0.0156,1.03834 0.0156,1.56141 z"
           style="font-family:'Berlin Sans FB';-inkscape-font-specification:'Berlin Sans FB, Normal'"
           id="path571" /><path
           d="m 119.1786,111.17146 q 0,0.96026 -1.06956,0.96026 -1.08518,0 -1.08518,-0.96026 0,-0.42939 0.3357,-0.71044 0.31229,-0.26544 0.74948,-0.26544 0.43719,0 0.74947,0.27324 0.32009,0.27325 0.32009,0.70264 z m -0.0547,2.1157 q 0,0.60114 -0.0781,1.81904 -0.0703,1.21009 -0.0703,1.81904 0,0.56991 0.0234,1.70974 0.0234,1.13202 0.0234,1.69413 0,0.16394 -0.14052,0.16394 h -1.52238 q -0.16394,0 -0.16394,-0.32009 0,-0.53868 0.0234,-1.61605 0.0312,-1.08518 0.0312,-1.63167 0,-0.60895 -0.0937,-1.82685 -0.0859,-1.21789 -0.0859,-1.82684 0,-0.13272 0.16395,-0.13272 0.14053,0 0.42939,0.039 0.29667,0.039 0.445,0.039 0.14833,0 0.43719,-0.039 0.29667,-0.039 0.445,-0.039 0.13272,0 0.13272,0.14833 z"
           style="font-family:'Berlin Sans FB';-inkscape-font-specification:'Berlin Sans FB, Normal'"
           id="path573" /></g><path
         id="rect529"
         style="fill:#000000;stroke-width:1.00677;stroke-linecap:round"
         d="m 70.11035,115.3974 c -0.41688,0 -0.752409,0.69165 -0.752409,1.55029 0,0.85864 0.335529,1.54978 0.752409,1.54978 h 19.307349 c -0.0078,-0.13684 -0.01344,-0.27602 -0.01344,-0.42013 v -2.25981 c 0,-0.14412 0.0056,-0.28329 0.01344,-0.42013 z m 51.247,0 c 0.008,0.13684 0.0134,0.27602 0.0134,0.42013 v 2.25981 c 0,0.14411 -0.006,0.28329 -0.0134,0.42013 h 19.51198 c 0.41688,0 0.75241,-0.69114 0.75241,-1.54978 0,-0.85864 -0.33553,-1.55029 -0.75241,-1.55029 z" /></g></g></svg>
